<?xml version="1.0" encoding="utf-8"?>
<!-- Generator: Adobe Illustrator 25.3.0, SVG Export Plug-In . SVG Version: 6.00 Build 0)  -->
<svg version="1.1" id="Layer_1" xmlns="http://www.w3.org/2000/svg" xmlns:xlink="http://www.w3.org/1999/xlink" x="0px" y="0px"
	 viewBox="0 0 512 512" style="enable-background:new 0 0 512 512;" xml:space="preserve">
<style type="text/css">
	.st0{fill:#F15946;}
</style>
<path class="st0" d="M471,0H43.7C20.4,0,0,16.8,0,39.9V468c0,23.2,20.4,43.9,43.7,43.9h427.1c23.5,0,41.1-20.8,41.1-43.9V39.9
	C512,16.8,494.3,0,471,0z M158.7,426.7H85.3v-228h73.3L158.7,426.7L158.7,426.7z M124.5,164H124c-23.5,0-38.7-17.5-38.7-39.3
	c0-22.3,15.6-39.3,39.6-39.3s38.7,16.9,39.2,39.3C164.1,146.5,148.9,164,124.5,164z M426.7,426.7h-73.3V302
	c0-29.9-10.7-50.3-37.2-50.3c-20.3,0-32.3,13.7-37.6,27.1c-2,4.8-2.5,11.3-2.5,18v129.9h-73.3v-228H276v31.7
	c10.7-15.2,27.3-37.1,66.1-37.1c48.1,0,84.5,31.7,84.5,100.1v133.3H426.7z"/>
</svg>
