<?xml version="1.0" encoding="utf-8"?>
<!-- Generator: Adobe Illustrator 25.3.0, SVG Export Plug-In . SVG Version: 6.00 Build 0)  -->
<svg version="1.1" id="Layer_1" xmlns="http://www.w3.org/2000/svg" xmlns:xlink="http://www.w3.org/1999/xlink" x="0px" y="0px"
	 viewBox="0 0 350 350" style="enable-background:new 0 0 350 350;" xml:space="preserve">
<style type="text/css">
	.st0{fill:#0C090D;}
</style>
<desc>Created with Fabric.js 1.7.22</desc>
<g id="icon" transform="translate(-1.9444444444444287 -1.9444444444444287) scale(3.89 3.89)">
	<path class="st0" d="M76,78.7H14.9c-8,0-14.5-6.5-14.5-14.5V25.7c0-8,6.5-14.5,14.5-14.5H76c8,0,14.5,6.5,14.5,14.5v38.6
		C90.5,72.3,84,78.7,76,78.7z M14.9,15.5c-5.6,0-10.2,4.6-10.2,10.2v38.6c0,5.6,4.6,10.2,10.2,10.2H76c5.6,0,10.2-4.6,10.2-10.2
		V25.7c0-5.6-4.6-10.2-10.2-10.2H14.9z"/>
	<path class="st0" d="M11.5,25.9C22.3,36.4,33.1,47,43.9,57.5c2,2,5.1-1.1,3.1-3.1C36.2,43.9,25.4,33.4,14.6,22.8
		C12.6,20.9,9.5,24,11.5,25.9L11.5,25.9z"/>
	<path class="st0" d="M47,57.5C57.8,47,68.6,36.4,79.4,25.9c2-2-1.1-5.1-3.1-3.1C65.6,33.4,54.7,43.9,43.9,54.4
		C41.9,56.4,45,59.5,47,57.5L47,57.5z"/>
	<path class="st0" d="M79.3,65c-7.2-6.8-14.4-13.6-21.6-20.5c-2-1.9-5.1,1.1-3.1,3.1C61.9,54.4,69,61.2,76.2,68
		C78.3,70,81.4,66.9,79.3,65L79.3,65z"/>
	<path class="st0" d="M14.9,68c7.2-6.8,14.4-13.6,21.6-20.5c2-1.9-1-5-3.1-3.1C26.2,51.3,19,58.1,11.8,65C9.8,66.9,12.9,70,14.9,68
		L14.9,68z"/>
</g>
</svg>
