<svg id="Layer_1" data-name="Layer 1" xmlns="http://www.w3.org/2000/svg" viewBox="0 0 495.87 482.92"><defs><style>.cls-1{fill:#f9c22e;}.cls-2{fill:#53b3cb;}</style></defs><path class="cls-1" d="M115.2,245.44V174.78c-21.51,33.79-51.2,66.05-80.38,86-4.1-7.68-12.8-19.46-20-25.6,30.72-16.9,63.48-51.2,84-86.53H22V119H115.2V71.87c-27.14,3.59-54.78,6.66-80.9,9.22a104.82,104.82,0,0,0-9.72-25.6c64.51-6.66,140.79-18.43,182.27-32.77L234,48.83c-1,1-3.07,1.54-5.12,1.54a14.27,14.27,0,0,1-4.61-.51C203.77,56,176.64,61.63,146.94,66.75V119h92.67v29.7H146.94v7.68c20.48,13.31,74.75,54.78,88.06,66.05L214.53,248c-12.29-13.31-44-42.5-67.59-62.47v59.91ZM248.83,333h-41Q197.11,381.37,171,415.93c15.36,9.22,28.67,18.43,38.4,27.14-10.24,14.33-13.32,20-16.39,26.11A330.66,330.66,0,0,0,150.53,439C121.85,466.62,84,486.07,37.38,498.36c-3.59-7.17-11.27-18.43-17.41-24.57,42-10.24,76.8-26.63,102.91-50.69-16.39-9.22-33.79-17.92-50.69-25.6l-7.68,14.85L36.86,401.08c9.73-18.43,22-42.49,33.8-68.09H17.92v-29.7H84.48c8.19-18.43,16.38-36.86,23-53.25l38.4,7.17c-1,3.59-4.1,5.63-10.75,5.12-5.12,12.29-11.27,26.63-17.92,41H248.83Zm-145.41,0c-6.14,13.31-12.29,26.62-18.94,39.42,19.45,8.19,39.93,17.41,59.39,27.65,14.34-18.43,24.58-41,30.72-67.07Zm221.7-28.16c-.52,3.58-4.1,5.63-9.73,6.65-8.71,73.22-28.16,147-106,185.35-3.59-6.66-12.29-17.41-18.95-22,70.66-34.3,89.09-100.86,96.26-173.57ZM470.52,83.65V286.91H251.9V83.65h79.87A542.27,542.27,0,0,0,349.18,21.7l38.4,8.7c-1,3.58-4.61,5.12-10.24,5.63C373.24,49.34,367.1,67.77,361,83.65ZM281.08,112.83V171.2h63.49V112.83Zm0,86v58.87h63.49V198.85ZM382.46,447.67c0,11.78,2.56,13.83,18.43,13.83h54.27c12.29,0,14.85-4.61,15.87-38.91,6.66,5.12,19,9.72,27.65,11.26-3.58,44.54-12.29,55.81-40.45,55.81H397.31c-35.84,0-45.06-8.19-45.06-42V296.12l39.94,2.56c-.52,3.59-3.07,6.15-9.73,6.66ZM440.31,171.2V112.83h-65V171.2Zm0,86.52V198.85h-65v58.87ZM401.4,389.82c7.17-24.58,14.85-58.88,19-81.92l30.72,7.17c-1,2.56-4.61,5.12-10.24,5.12-4.1,18.43-11.27,45.57-18.44,67.58l42-4.1c-4.61-10.75-9.73-21.5-14.85-30.71L468,345.79c12.29,20,23.55,47.1,28.16,64.51l-20,8.19a124.88,124.88,0,0,0-4.6-15.36l-72.2,10.24c-1,3.59-3.07,6.14-6.14,6.66L383,391.36Z" transform="translate(-2.81 -15.44)"/><path class="cls-2" d="M103.16,239.19V168.53c-21.5,33.79-51.2,66.05-80.38,86-4.1-7.68-12.8-19.46-20-25.6,30.72-16.9,63.49-51.2,84-86.53H10v-29.7h93.18V65.62C76,69.2,48.38,72.28,22.27,74.84a104.71,104.71,0,0,0-9.73-25.6c64.51-6.66,140.8-18.44,182.27-32.77L222,42.58c-1,1-3.08,1.54-5.12,1.54a14,14,0,0,1-4.61-.52c-20.48,6.15-47.62,11.78-77.31,16.9v52.22h92.67v29.7H134.91v7.68c20.48,13.31,74.75,54.78,88.06,66.05l-20.48,25.6c-12.29-13.32-44-42.5-67.58-62.47v59.91Zm133.63,87.55h-41Q185.09,375.12,159,409.68c15.36,9.22,28.67,18.43,38.4,27.13-10.24,14.34-13.31,20-16.38,26.12a330.83,330.83,0,0,0-42.5-30.21c-28.67,27.65-66.56,47.1-113.15,59.39-3.58-7.17-11.26-18.43-17.41-24.58,42-10.24,76.8-26.62,102.91-50.68-16.38-9.22-33.79-17.92-50.68-25.6L52.48,406.1,24.83,394.83c9.73-18.43,22-42.49,33.79-68.09H5.89V297H72.44c8.2-18.43,16.39-36.86,23-53.25l38.4,7.17c-1,3.59-4.09,5.63-10.75,5.12-5.12,12.29-11.26,26.62-17.92,41H236.79Zm-145.4,0c-6.15,13.31-12.29,26.62-19,39.42,19.46,8.19,39.94,17.41,59.4,27.65,14.33-18.43,24.57-41,30.71-67.07Zm221.69-28.16c-.51,3.58-4.1,5.63-9.73,6.65-8.7,73.22-28.16,146.94-106,185.34-3.58-6.65-12.29-17.4-18.94-22,70.65-34.3,89.08-100.86,96.25-173.57ZM458.49,77.4V280.66H239.87V77.4h79.87a543.78,543.78,0,0,0,17.4-62l38.4,8.71c-1,3.58-4.6,5.12-10.24,5.63-4.09,13.31-10.24,31.74-16.38,47.62ZM269.05,106.58V165h63.49V106.58Zm0,86v58.88h63.49V192.59ZM370.42,441.42c0,11.78,2.56,13.83,18.44,13.83h54.27c12.29,0,14.84-4.61,15.87-38.91,6.65,5.12,18.94,9.72,27.65,11.26-3.59,44.54-12.29,55.81-40.45,55.81H385.27c-35.84,0-45-8.2-45-42V289.87l39.93,2.56c-.51,3.59-3.07,6.15-9.73,6.66ZM428.28,165V106.58h-65V165Zm0,86.52V192.59h-65v58.88Zm-38.91,132.1c7.17-24.58,14.85-58.88,18.94-81.92L439,308.82c-1,2.56-4.61,5.12-10.24,5.12-4.09,18.43-11.26,45.56-18.43,67.58l42-4.1c-4.6-10.75-9.72-21.5-14.84-30.72l18.43-7.16c12.29,20,23.55,47.1,28.16,64.51l-20,8.19a125.07,125.07,0,0,0-4.61-15.36l-72.19,10.24c-1,3.58-3.07,6.14-6.14,6.65L370.94,385.1Z" transform="translate(-2.81 -15.44)"/></svg>