<svg id="Layer_1" data-name="Layer 1" xmlns="http://www.w3.org/2000/svg" xmlns:xlink="http://www.w3.org/1999/xlink" viewBox="0 0 1920 1080"><defs><style>.cls-1,.cls-4,.cls-5,.cls-6,.cls-7{fill:none;}.cls-2{fill:#0c090d;}.cls-3{clip-path:url(#clip-path);}.cls-4{stroke:#f9c22e;}.cls-4,.cls-5,.cls-6,.cls-7{stroke-miterlimit:10;stroke-width:10px;}.cls-5{stroke:#53b3cb;}.cls-6{stroke:#f15946;}.cls-7{stroke:#e01a4f;}</style><clipPath id="clip-path"><rect class="cls-1" width="1920" height="1080"/></clipPath></defs><rect class="cls-2" width="1920" height="1080"/><g class="cls-3"><rect class="cls-4" x="167.74" y="-352.52" width="122.08" height="1827.37" transform="translate(-198.18 131.1) rotate(-22.61)"/><rect class="cls-5" x="159.74" y="-359.52" width="122.08" height="1827.37" transform="translate(-196.1 127.49) rotate(-22.61)"/></g><g class="cls-3"><rect class="cls-4" x="-668.43" y="409.68" width="1807.92" height="48.88" transform="translate(-237.35 576.67) rotate(-78.29)"/><rect class="cls-6" x="-676.43" y="402.68" width="1807.92" height="48.88" transform="translate(-236.87 563.26) rotate(-78.29)"/></g><g class="cls-3"><rect class="cls-4" x="-627.11" y="257.64" width="1817.78" height="205.07" transform="translate(-174.93 336.88) rotate(-49.04)"/><rect class="cls-7" x="-635.11" y="250.64" width="1817.78" height="205.07" transform="translate(-172.4 328.43) rotate(-49.04)"/></g><g class="cls-3"><rect class="cls-4" x="1662.78" y="-353.01" width="61.25" height="1827.37" transform="translate(39.76 1229.58) rotate(-40.34)"/><rect class="cls-7" x="1670.78" y="-360.01" width="61.25" height="1827.37" transform="translate(46.19 1233.09) rotate(-40.34)"/></g><g class="cls-3"><rect class="cls-4" x="1697.74" y="-483.46" width="122.08" height="1827.37" transform="translate(-50.65 496.33) rotate(-15.84)"/><rect class="cls-5" x="1705.74" y="-490.46" width="122.08" height="1827.37" transform="translate(-48.43 498.24) rotate(-15.84)"/></g><g class="cls-3"><rect class="cls-4" x="807.43" y="374.95" width="1815.15" height="247.18" transform="translate(1133.09 2187.07) rotate(-87.19)"/><rect class="cls-6" x="815.43" y="367.95" width="1815.15" height="247.18" transform="translate(1147.69 2188.41) rotate(-87.19)"/></g></svg>